<?xml version="1.0" encoding="UTF-8" standalone="no"?>
<!DOCTYPE svg PUBLIC "-//W3C//DTD SVG 1.1//EN"
 "http://www.w3.org/Graphics/SVG/1.1/DTD/svg11.dtd">
<!-- Generated by graphviz version 5.0.0 (20220707.1540)
 -->
<!-- Title: dependencies Pages: 1 -->
<svg width="974pt" height="334pt"
 viewBox="0.00 0.00 974.00 333.80" xmlns="http://www.w3.org/2000/svg" xmlns:xlink="http://www.w3.org/1999/xlink">
<g id="graph0" class="graph" transform="scale(1 1) rotate(0) translate(4 329.8)">
<title>dependencies</title>
<polygon fill="white" stroke="transparent" points="-4,4 -4,-329.8 970,-329.8 970,4 -4,4"/>
<text text-anchor="middle" x="483" y="-8.2" font-family="sans-serif" font-size="14.00">dependencies</text>
<g id="clust1" class="cluster">
<title>cluster_AppModule</title>
<polygon fill="none" stroke="black" stroke-dasharray="1,5" points="247,-108.8 247,-309.8 690,-309.8 690,-108.8 247,-108.8"/>
</g>
<g id="clust3" class="cluster">
<title>cluster_AppModule_imports</title>
<polygon fill="none" stroke="black" points="255,-116.8 255,-233.8 682,-233.8 682,-116.8 255,-116.8"/>
</g>
<g id="clust7" class="cluster">
<title>cluster_AuthModule</title>
<polygon fill="none" stroke="black" stroke-dasharray="1,5" points="8,-32.8 8,-100.8 404,-100.8 404,-32.8 8,-32.8"/>
</g>
<g id="clust10" class="cluster">
<title>cluster_AuthModule_exports</title>
<polygon fill="none" stroke="black" points="290,-40.8 290,-92.8 396,-92.8 396,-40.8 290,-40.8"/>
</g>
<g id="clust12" class="cluster">
<title>cluster_AuthModule_providers</title>
<polygon fill="none" stroke="black" points="16,-40.8 16,-92.8 282,-92.8 282,-40.8 16,-40.8"/>
</g>
<g id="clust13" class="cluster">
<title>cluster_FileModule</title>
<polygon fill="none" stroke="black" stroke-dasharray="1,5" points="412,-32.8 412,-100.8 554,-100.8 554,-32.8 412,-32.8"/>
</g>
<g id="clust18" class="cluster">
<title>cluster_FileModule_providers</title>
<polygon fill="none" stroke="black" points="420,-40.8 420,-92.8 546,-92.8 546,-40.8 420,-40.8"/>
</g>
<g id="clust19" class="cluster">
<title>cluster_ReceiptModule</title>
<polygon fill="none" stroke="black" stroke-dasharray="1,5" points="562,-32.8 562,-100.8 732,-100.8 732,-32.8 562,-32.8"/>
</g>
<g id="clust24" class="cluster">
<title>cluster_ReceiptModule_providers</title>
<polygon fill="none" stroke="black" points="570,-40.8 570,-92.8 724,-92.8 724,-40.8 570,-40.8"/>
</g>
<g id="clust25" class="cluster">
<title>cluster_RoleModule</title>
<polygon fill="none" stroke="black" stroke-dasharray="1,5" points="698,-173.8 698,-241.8 958,-241.8 958,-173.8 698,-173.8"/>
</g>
<g id="clust28" class="cluster">
<title>cluster_RoleModule_exports</title>
<polygon fill="none" stroke="black" points="846,-181.8 846,-233.8 950,-233.8 950,-181.8 846,-181.8"/>
</g>
<g id="clust30" class="cluster">
<title>cluster_RoleModule_providers</title>
<polygon fill="none" stroke="black" points="706,-181.8 706,-233.8 838,-233.8 838,-181.8 706,-181.8"/>
</g>
<g id="clust31" class="cluster">
<title>cluster_UserModule</title>
<polygon fill="none" stroke="black" stroke-dasharray="1,5" points="698,-249.8 698,-317.8 958,-317.8 958,-249.8 698,-249.8"/>
</g>
<g id="clust34" class="cluster">
<title>cluster_UserModule_exports</title>
<polygon fill="none" stroke="black" points="846,-257.8 846,-309.8 950,-309.8 950,-257.8 846,-257.8"/>
</g>
<g id="clust36" class="cluster">
<title>cluster_UserModule_providers</title>
<polygon fill="none" stroke="black" points="706,-257.8 706,-309.8 838,-309.8 838,-257.8 706,-257.8"/>
</g>
<!-- AuthModule -->
<g id="node1" class="node">
<title>AuthModule</title>
<polygon fill="#8dd3c7" stroke="black" points="350.55,-160.8 347.55,-164.8 326.55,-164.8 323.55,-160.8 263.45,-160.8 263.45,-124.8 350.55,-124.8 350.55,-160.8"/>
<text text-anchor="middle" x="307" y="-138.6" font-family="Times,serif" font-size="14.00">AuthModule</text>
</g>
<!-- AppModule -->
<g id="node6" class="node">
<title>AppModule</title>
<polygon fill="#8dd3c7" stroke="black" points="560.66,-301.8 557.66,-305.8 536.66,-305.8 533.66,-301.8 477.34,-301.8 477.34,-265.8 560.66,-265.8 560.66,-301.8"/>
<text text-anchor="middle" x="519" y="-279.6" font-family="Times,serif" font-size="14.00">AppModule</text>
</g>
<!-- AuthModule&#45;&gt;AppModule -->
<g id="edge1" class="edge">
<title>AuthModule&#45;&gt;AppModule</title>
<path fill="none" stroke="black" d="M307,-160.83C307,-200.08 307,-289.8 307,-289.8 307,-289.8 467.12,-289.8 467.12,-289.8"/>
<polygon fill="black" stroke="black" points="467.12,-293.3 477.12,-289.8 467.12,-286.3 467.12,-293.3"/>
</g>
<!-- AuthService  -->
<g id="node7" class="node">
<title>AuthService </title>
<polygon fill="#fb8072" stroke="black" points="387.98,-84.8 298.02,-84.8 298.02,-48.8 387.98,-48.8 387.98,-84.8"/>
<text text-anchor="middle" x="343" y="-62.6" font-family="Times,serif" font-size="14.00">AuthService </text>
</g>
<!-- AuthModule&#45;&gt;AuthService  -->
<g id="edge6" class="edge">
<title>AuthModule&#45;&gt;AuthService </title>
<path fill="none" stroke="black" stroke-dasharray="5,2" d="M324.52,-124.79C324.52,-124.79 324.52,-94.95 324.52,-94.95"/>
<polygon fill="black" stroke="black" points="328.02,-94.95 324.52,-84.95 321.02,-94.95 328.02,-94.95"/>
</g>
<!-- FileModule -->
<g id="node2" class="node">
<title>FileModule</title>
<polygon fill="#8dd3c7" stroke="black" points="449.83,-160.8 446.83,-164.8 425.83,-164.8 422.83,-160.8 368.17,-160.8 368.17,-124.8 449.83,-124.8 449.83,-160.8"/>
<text text-anchor="middle" x="409" y="-138.6" font-family="Times,serif" font-size="14.00">FileModule</text>
</g>
<!-- FileModule&#45;&gt;AppModule -->
<g id="edge2" class="edge">
<title>FileModule&#45;&gt;AppModule</title>
<path fill="none" stroke="black" d="M409,-161.01C409,-197.86 409,-277.8 409,-277.8 409,-277.8 467.1,-277.8 467.1,-277.8"/>
<polygon fill="black" stroke="black" points="467.1,-281.3 477.1,-277.8 467.1,-274.3 467.1,-281.3"/>
</g>
<!-- ReceiptModule -->
<g id="node3" class="node">
<title>ReceiptModule</title>
<polygon fill="#8dd3c7" stroke="black" points="570.31,-160.8 567.31,-164.8 546.31,-164.8 543.31,-160.8 467.69,-160.8 467.69,-124.8 570.31,-124.8 570.31,-160.8"/>
<text text-anchor="middle" x="519" y="-138.6" font-family="Times,serif" font-size="14.00">ReceiptModule</text>
</g>
<!-- ReceiptModule&#45;&gt;AppModule -->
<g id="edge3" class="edge">
<title>ReceiptModule&#45;&gt;AppModule</title>
<path fill="none" stroke="black" d="M505.06,-160.94C505.06,-160.94 505.06,-255.73 505.06,-255.73"/>
<polygon fill="black" stroke="black" points="501.56,-255.72 505.06,-265.73 508.56,-255.73 501.56,-255.72"/>
</g>
<!-- RoleModule -->
<g id="node4" class="node">
<title>RoleModule</title>
<polygon fill="#8dd3c7" stroke="black" points="673.99,-160.8 670.99,-164.8 649.99,-164.8 646.99,-160.8 588.01,-160.8 588.01,-124.8 673.99,-124.8 673.99,-160.8"/>
<text text-anchor="middle" x="631" y="-138.6" font-family="Times,serif" font-size="14.00">RoleModule</text>
</g>
<!-- UserModule -->
<g id="node5" class="node">
<title>UserModule</title>
<polygon fill="#8dd3c7" stroke="black" points="673.99,-225.8 670.99,-229.8 649.99,-229.8 646.99,-225.8 588.01,-225.8 588.01,-189.8 673.99,-189.8 673.99,-225.8"/>
<text text-anchor="middle" x="631" y="-203.6" font-family="Times,serif" font-size="14.00">UserModule</text>
</g>
<!-- RoleModule&#45;&gt;UserModule -->
<g id="edge14" class="edge">
<title>RoleModule&#45;&gt;UserModule</title>
<path fill="none" stroke="black" d="M631,-160.91C631,-160.91 631,-179.79 631,-179.79"/>
<polygon fill="black" stroke="black" points="627.5,-179.79 631,-189.79 634.5,-179.79 627.5,-179.79"/>
</g>
<!-- RoleModule&#45;&gt;AppModule -->
<g id="edge4" class="edge">
<title>RoleModule&#45;&gt;AppModule</title>
<path fill="none" stroke="black" d="M587.96,-148.8C579.84,-148.8 573.83,-148.8 573.83,-148.8 573.83,-148.8 573.83,-277.8 573.83,-277.8 573.83,-277.8 570.84,-277.8 570.84,-277.8"/>
<polygon fill="black" stroke="black" points="570.84,-274.3 560.84,-277.8 570.84,-281.3 570.84,-274.3"/>
</g>
<!-- RoleService  -->
<g id="node12" class="node">
<title>RoleService </title>
<polygon fill="#fb8072" stroke="black" points="941.92,-225.8 854.08,-225.8 854.08,-189.8 941.92,-189.8 941.92,-225.8"/>
<text text-anchor="middle" x="898" y="-203.6" font-family="Times,serif" font-size="14.00">RoleService </text>
</g>
<!-- RoleModule&#45;&gt;RoleService  -->
<g id="edge12" class="edge">
<title>RoleModule&#45;&gt;RoleService </title>
<path fill="none" stroke="black" stroke-dasharray="5,2" d="M674.19,-136.8C749.76,-136.8 898,-136.8 898,-136.8 898,-136.8 898,-179.52 898,-179.52"/>
<polygon fill="black" stroke="black" points="894.5,-179.52 898,-189.52 901.5,-179.52 894.5,-179.52"/>
</g>
<!-- UserModule&#45;&gt;AppModule -->
<g id="edge5" class="edge">
<title>UserModule&#45;&gt;AppModule</title>
<path fill="none" stroke="black" d="M587.99,-207.8C561.64,-207.8 532.94,-207.8 532.94,-207.8 532.94,-207.8 532.94,-255.79 532.94,-255.79"/>
<polygon fill="black" stroke="black" points="529.44,-255.79 532.94,-265.79 536.44,-255.79 529.44,-255.79"/>
</g>
<!-- UserService  -->
<g id="node14" class="node">
<title>UserService </title>
<polygon fill="#fb8072" stroke="black" points="941.91,-301.8 854.09,-301.8 854.09,-265.8 941.91,-265.8 941.91,-301.8"/>
<text text-anchor="middle" x="898" y="-279.6" font-family="Times,serif" font-size="14.00">UserService </text>
</g>
<!-- UserModule&#45;&gt;UserService  -->
<g id="edge15" class="edge">
<title>UserModule&#45;&gt;UserService </title>
<path fill="none" stroke="black" stroke-dasharray="5,2" d="M616.67,-225.91C616.67,-235.7 616.67,-245.8 616.67,-245.8 616.67,-245.8 898,-245.8 898,-245.8 898,-245.8 898,-255.69 898,-255.69"/>
<polygon fill="black" stroke="black" points="894.5,-255.69 898,-265.69 901.5,-255.69 894.5,-255.69"/>
</g>
<!-- AuthService -->
<g id="node8" class="node">
<title>AuthService</title>
<ellipse fill="#fdb462" stroke="black" cx="215" cy="-66.8" rx="59.11" ry="18"/>
<text text-anchor="middle" x="215" y="-62.6" font-family="Times,serif" font-size="14.00">AuthService</text>
</g>
<!-- AuthService&#45;&gt;AuthModule -->
<g id="edge7" class="edge">
<title>AuthService&#45;&gt;AuthModule</title>
<path fill="none" stroke="black" d="M268.77,-74.65C268.77,-74.65 268.77,-114.53 268.77,-114.53"/>
<polygon fill="black" stroke="black" points="265.27,-114.53 268.77,-124.53 272.27,-114.53 265.27,-114.53"/>
</g>
<!-- JwtStrategy -->
<g id="node9" class="node">
<title>JwtStrategy</title>
<ellipse fill="#fdb462" stroke="black" cx="81" cy="-66.8" rx="56.77" ry="18"/>
<text text-anchor="middle" x="81" y="-62.6" font-family="Times,serif" font-size="14.00">JwtStrategy</text>
</g>
<!-- JwtStrategy&#45;&gt;AuthModule -->
<g id="edge8" class="edge">
<title>JwtStrategy&#45;&gt;AuthModule</title>
<path fill="none" stroke="black" d="M81,-84.81C81,-107.29 81,-142.8 81,-142.8 81,-142.8 253.42,-142.8 253.42,-142.8"/>
<polygon fill="black" stroke="black" points="253.42,-146.3 263.42,-142.8 253.42,-139.3 253.42,-146.3"/>
</g>
<!-- FileService -->
<g id="node10" class="node">
<title>FileService</title>
<ellipse fill="#fdb462" stroke="black" cx="483" cy="-66.8" rx="55.03" ry="18"/>
<text text-anchor="middle" x="483" y="-62.6" font-family="Times,serif" font-size="14.00">FileService</text>
</g>
<!-- FileService&#45;&gt;FileModule -->
<g id="edge9" class="edge">
<title>FileService&#45;&gt;FileModule</title>
<path fill="none" stroke="black" d="M438.82,-77.69C438.82,-77.69 438.82,-114.59 438.82,-114.59"/>
<polygon fill="black" stroke="black" points="435.32,-114.59 438.82,-124.59 442.32,-114.59 435.32,-114.59"/>
</g>
<!-- FileService&#45;&gt;ReceiptModule -->
<g id="edge10" class="edge">
<title>FileService&#45;&gt;ReceiptModule</title>
<path fill="none" stroke="black" d="M502.93,-83.67C502.93,-83.67 502.93,-114.65 502.93,-114.65"/>
<polygon fill="black" stroke="black" points="499.43,-114.65 502.93,-124.65 506.43,-114.65 499.43,-114.65"/>
</g>
<!-- ReceiptService -->
<g id="node11" class="node">
<title>ReceiptService</title>
<ellipse fill="#fdb462" stroke="black" cx="647" cy="-66.8" rx="69.47" ry="18"/>
<text text-anchor="middle" x="647" y="-62.6" font-family="Times,serif" font-size="14.00">ReceiptService</text>
</g>
<!-- ReceiptService&#45;&gt;ReceiptModule -->
<g id="edge11" class="edge">
<title>ReceiptService&#45;&gt;ReceiptModule</title>
<path fill="none" stroke="black" d="M582.76,-73.77C582.76,-91.47 582.76,-136.8 582.76,-136.8 582.76,-136.8 580.16,-136.8 580.16,-136.8"/>
<polygon fill="black" stroke="black" points="580.16,-133.3 570.16,-136.8 580.16,-140.3 580.16,-133.3"/>
</g>
<!-- RoleService -->
<g id="node13" class="node">
<title>RoleService</title>
<ellipse fill="#fdb462" stroke="black" cx="772" cy="-207.8" rx="58.46" ry="18"/>
<text text-anchor="middle" x="772" y="-203.6" font-family="Times,serif" font-size="14.00">RoleService</text>
</g>
<!-- RoleService&#45;&gt;RoleModule -->
<g id="edge13" class="edge">
<title>RoleService&#45;&gt;RoleModule</title>
<path fill="none" stroke="black" d="M773.36,-189.78C773.36,-172.43 773.36,-148.8 773.36,-148.8 773.36,-148.8 684.1,-148.8 684.1,-148.8"/>
<polygon fill="black" stroke="black" points="684.1,-145.3 674.1,-148.8 684.1,-152.3 684.1,-145.3"/>
</g>
<!-- UserService -->
<g id="node15" class="node">
<title>UserService</title>
<ellipse fill="#fdb462" stroke="black" cx="772" cy="-283.8" rx="58.46" ry="18"/>
<text text-anchor="middle" x="772" y="-279.6" font-family="Times,serif" font-size="14.00">UserService</text>
</g>
<!-- UserService&#45;&gt;UserModule -->
<g id="edge16" class="edge">
<title>UserService&#45;&gt;UserModule</title>
<path fill="none" stroke="black" d="M716.81,-289.8C682.67,-289.8 645.33,-289.8 645.33,-289.8 645.33,-289.8 645.33,-236 645.33,-236"/>
<polygon fill="black" stroke="black" points="648.83,-236 645.33,-226 641.83,-236 648.83,-236"/>
</g>
</g>
</svg>
