<?xml version="1.0" encoding="UTF-8" standalone="no"?>
<!DOCTYPE svg PUBLIC "-//W3C//DTD SVG 1.1//EN"
 "http://www.w3.org/Graphics/SVG/1.1/DTD/svg11.dtd">
<!-- Generated by graphviz version 5.0.0 (20220707.1540)
 -->
<!-- Title: dependencies Pages: 1 -->
<svg width="571pt" height="174pt"
 viewBox="0.00 0.00 571.00 173.80" xmlns="http://www.w3.org/2000/svg" xmlns:xlink="http://www.w3.org/1999/xlink">
<g id="graph0" class="graph" transform="scale(1 1) rotate(0) translate(4 169.8)">
<title>dependencies</title>
<polygon fill="white" stroke="transparent" points="-4,4 -4,-169.8 567,-169.8 567,4 -4,4"/>
<text text-anchor="middle" x="281.5" y="-8.2" font-family="sans-serif" font-size="14.00">dependencies</text>
<g id="clust1" class="cluster">
<title>cluster_AppModule</title>
<polygon fill="none" stroke="black" stroke-dasharray="1,5" points="8,-32.8 8,-157.8 555,-157.8 555,-32.8 8,-32.8"/>
</g>
<g id="clust3" class="cluster">
<title>cluster_AppModule_imports</title>
<polygon fill="none" stroke="black" points="16,-40.8 16,-92.8 547,-92.8 547,-40.8 16,-40.8"/>
</g>
<!-- AuthModule -->
<g id="node1" class="node">
<title>AuthModule</title>
<polygon fill="#8dd3c7" stroke="black" points="538.55,-84.8 535.55,-88.8 514.55,-88.8 511.55,-84.8 451.45,-84.8 451.45,-48.8 538.55,-48.8 538.55,-84.8"/>
<text text-anchor="middle" x="495" y="-62.6" font-family="Times,serif" font-size="14.00">AuthModule</text>
</g>
<!-- AppModule -->
<g id="node6" class="node">
<title>AppModule</title>
<polygon fill="#8dd3c7" stroke="black" points="324.66,-149.8 321.66,-153.8 300.66,-153.8 297.66,-149.8 241.34,-149.8 241.34,-113.8 324.66,-113.8 324.66,-149.8"/>
<text text-anchor="middle" x="283" y="-127.6" font-family="Times,serif" font-size="14.00">AppModule</text>
</g>
<!-- AuthModule&#45;&gt;AppModule -->
<g id="edge1" class="edge">
<title>AuthModule&#45;&gt;AppModule</title>
<path fill="none" stroke="black" d="M495,-85.08C495,-106.12 495,-137.8 495,-137.8 495,-137.8 334.88,-137.8 334.88,-137.8"/>
<polygon fill="black" stroke="black" points="334.88,-134.3 324.88,-137.8 334.88,-141.3 334.88,-134.3"/>
</g>
<!-- FileModule -->
<g id="node2" class="node">
<title>FileModule</title>
<polygon fill="#8dd3c7" stroke="black" points="433.83,-84.8 430.83,-88.8 409.83,-88.8 406.83,-84.8 352.17,-84.8 352.17,-48.8 433.83,-48.8 433.83,-84.8"/>
<text text-anchor="middle" x="393" y="-62.6" font-family="Times,serif" font-size="14.00">FileModule</text>
</g>
<!-- FileModule&#45;&gt;AppModule -->
<g id="edge2" class="edge">
<title>FileModule&#45;&gt;AppModule</title>
<path fill="none" stroke="black" d="M393,-84.82C393,-102.17 393,-125.8 393,-125.8 393,-125.8 334.9,-125.8 334.9,-125.8"/>
<polygon fill="black" stroke="black" points="334.9,-122.3 324.9,-125.8 334.9,-129.3 334.9,-122.3"/>
</g>
<!-- ReceiptModule -->
<g id="node3" class="node">
<title>ReceiptModule</title>
<polygon fill="#8dd3c7" stroke="black" points="334.31,-84.8 331.31,-88.8 310.31,-88.8 307.31,-84.8 231.69,-84.8 231.69,-48.8 334.31,-48.8 334.31,-84.8"/>
<text text-anchor="middle" x="283" y="-62.6" font-family="Times,serif" font-size="14.00">ReceiptModule</text>
</g>
<!-- ReceiptModule&#45;&gt;AppModule -->
<g id="edge3" class="edge">
<title>ReceiptModule&#45;&gt;AppModule</title>
<path fill="none" stroke="black" d="M283,-84.91C283,-84.91 283,-103.79 283,-103.79"/>
<polygon fill="black" stroke="black" points="279.5,-103.79 283,-113.79 286.5,-103.79 279.5,-103.79"/>
</g>
<!-- RoleModule -->
<g id="node4" class="node">
<title>RoleModule</title>
<polygon fill="#8dd3c7" stroke="black" points="213.99,-84.8 210.99,-88.8 189.99,-88.8 186.99,-84.8 128.01,-84.8 128.01,-48.8 213.99,-48.8 213.99,-84.8"/>
<text text-anchor="middle" x="171" y="-62.6" font-family="Times,serif" font-size="14.00">RoleModule</text>
</g>
<!-- RoleModule&#45;&gt;AppModule -->
<g id="edge4" class="edge">
<title>RoleModule&#45;&gt;AppModule</title>
<path fill="none" stroke="black" d="M171,-84.82C171,-102.17 171,-125.8 171,-125.8 171,-125.8 231.3,-125.8 231.3,-125.8"/>
<polygon fill="black" stroke="black" points="231.3,-129.3 241.3,-125.8 231.3,-122.3 231.3,-129.3"/>
</g>
<!-- UserModule -->
<g id="node5" class="node">
<title>UserModule</title>
<polygon fill="#8dd3c7" stroke="black" points="109.99,-84.8 106.99,-88.8 85.99,-88.8 82.99,-84.8 24.01,-84.8 24.01,-48.8 109.99,-48.8 109.99,-84.8"/>
<text text-anchor="middle" x="67" y="-62.6" font-family="Times,serif" font-size="14.00">UserModule</text>
</g>
<!-- UserModule&#45;&gt;AppModule -->
<g id="edge5" class="edge">
<title>UserModule&#45;&gt;AppModule</title>
<path fill="none" stroke="black" d="M67,-85.08C67,-106.12 67,-137.8 67,-137.8 67,-137.8 231.1,-137.8 231.1,-137.8"/>
<polygon fill="black" stroke="black" points="231.1,-141.3 241.1,-137.8 231.1,-134.3 231.1,-141.3"/>
</g>
</g>
</svg>
