<svg xmlns="http://www.w3.org/2000/svg" width="21.5" height="13.5"><path fill="#C2C2C2" d="M21.309 6.25c-.104-.115-1.48-1.622-3.625-2.992l2.967-1.873A.75.75 0 0 0 19.85.116l-3.643 2.3C14.622 1.613 12.762 1 10.75 1 4.958 1 .383 6.035.191 6.25a.75.75 0 0 0 0 1.001c.103.115 1.48 1.623 3.624 2.992L.85 12.115a.751.751 0 0 0 .801 1.27l3.642-2.301c1.585.803 3.444 1.416 5.457 1.416 5.792 0 10.367-5.035 10.559-5.25a.75.75 0 0 0 0-1zm-19.506.499C3.072 5.528 6.635 2.5 10.75 2.5c1.401 0 2.738.357 3.945.872l-1.246.787A3.73 3.73 0 0 0 10.75 3 3.754 3.754 0 0 0 7 6.75c0 .467.096.909.252 1.322L5.237 9.345a18.567 18.567 0 0 1-3.434-2.596zM13 6.75C13 7.99 11.991 9 10.75 9c-.524 0-1-.188-1.383-.489l3.574-2.257c.036.16.059.325.059.496zm-4.441.497A2.268 2.268 0 0 1 8.5 6.75a2.252 2.252 0 0 1 2.25-2.25c.524 0 1 .188 1.383.489L8.559 7.247zM10.75 11c-1.402 0-2.738-.357-3.945-.871l1.246-.787A3.73 3.73 0 0 0 10.75 10.5a3.754 3.754 0 0 0 3.75-3.75c0-.467-.097-.909-.254-1.322l2.017-1.273a18.512 18.512 0 0 1 3.433 2.595C18.424 7.971 14.853 11 10.75 11z"/></svg>
