<svg xmlns="http://www.w3.org/2000/svg" width="21.5" height="13.5"><g fill="#C2C2C2"><path d="M21.308 6.5c-.192-.214-4.768-5.25-10.559-5.25S.382 6.285.19 6.5a.75.75 0 0 0 0 1.001c.192.214 4.767 5.25 10.559 5.25S21.116 7.715 21.308 7.5a.75.75 0 0 0 0-1zm-10.559 4.75c-4.104 0-7.675-3.03-8.947-4.251 1.27-1.221 4.832-4.249 8.947-4.249 4.104 0 7.675 3.03 8.948 4.251-1.27 1.221-4.832 4.249-8.948 4.249z"/><path d="M7.25 7c0 2.068 1.682 3.75 3.75 3.75S14.75 9.068 14.75 7 13.067 3.25 11 3.25 7.25 4.932 7.25 7zm6 0c0 1.24-1.01 2.25-2.25 2.25S8.75 8.24 8.75 7c0-1.241 1.009-2.25 2.25-2.25S13.25 5.759 13.25 7z"/></g></svg>
